<svg width="960" height="640" viewBox="0 0 960 640" fill="none" xmlns="http://www.w3.org/2000/svg">
  <rect width="960" height="640" rx="44" fill="url(#bg)"/>
  <rect x="68" y="86" width="824" height="468" rx="30" fill="#FDFEFF" fill-opacity="0.95"/>
  <rect x="110" y="128" width="210" height="150" rx="24" fill="#0B66C3"/>
  <rect x="346" y="128" width="220" height="150" rx="24" fill="#FFF2E5"/>
  <rect x="592" y="128" width="256" height="150" rx="24" fill="#EAF7FF"/>
  <rect x="110" y="304" width="340" height="206" rx="28" fill="#EDF8F1"/>
  <rect x="474" y="304" width="374" height="206" rx="28" fill="#FFF8EF"/>
  <rect x="142" y="158" width="76" height="12" rx="6" fill="#D4EBFF"/>
  <rect x="142" y="184" width="118" height="10" rx="5" fill="#9ED0FF"/>
  <rect x="142" y="218" width="146" height="24" rx="12" fill="#FFFFFF"/>
  <rect x="378" y="160" width="88" height="12" rx="6" fill="#C96E22"/>
  <rect x="378" y="188" width="126" height="10" rx="5" fill="#D6A06B"/>
  <path d="M382 240C404 212 430 198 460 198C490 198 516 212 542 240" stroke="#0F766E" stroke-width="16" stroke-linecap="round"/>
  <rect x="624" y="160" width="94" height="12" rx="6" fill="#0B66C3"/>
  <rect x="624" y="188" width="146" height="10" rx="5" fill="#91A7C0"/>
  <path d="M624 243H808" stroke="#B8D9F8" stroke-width="18" stroke-linecap="round"/>
  <circle cx="684" cy="243" r="18" fill="#F47C20"/>
  <rect x="144" y="340" width="118" height="12" rx="6" fill="#0F766E"/>
  <rect x="144" y="366" width="158" height="10" rx="5" fill="#76B7A8"/>
  <rect x="144" y="404" width="272" height="72" rx="20" fill="#FFFFFF"/>
  <path d="M176 455L220 416L254 438L316 388L386 436" stroke="#0B66C3" stroke-width="14" stroke-linecap="round" stroke-linejoin="round"/>
  <rect x="510" y="340" width="144" height="12" rx="6" fill="#C96E22"/>
  <rect x="510" y="366" width="170" height="10" rx="5" fill="#D6A06B"/>
  <rect x="510" y="404" width="302" height="24" rx="12" fill="#FFFFFF"/>
  <rect x="510" y="444" width="244" height="24" rx="12" fill="#FFFFFF"/>
  <circle cx="770" cy="456" r="30" fill="#0F766E"/>
  <path d="M758 456L767 465L784 447" stroke="white" stroke-width="8" stroke-linecap="round" stroke-linejoin="round"/>
  <circle cx="146" cy="74" r="58" fill="#F7C679" fill-opacity="0.25"/>
  <circle cx="830" cy="88" r="80" fill="#8DD3FE" fill-opacity="0.2"/>
  <defs>
    <linearGradient id="bg" x1="59" y1="40" x2="822" y2="585" gradientUnits="userSpaceOnUse">
      <stop stop-color="#EFF7FF"/>
      <stop offset="1" stop-color="#FFF4E7"/>
    </linearGradient>
  </defs>
</svg>
