<svg width="900" height="900" viewBox="0 0 900 900" fill="none" xmlns="http://www.w3.org/2000/svg">
  <rect width="900" height="900" rx="56" fill="url(#bg)"/>
  <circle cx="180" cy="176" r="98" fill="#F8D278" fill-opacity="0.23"/>
  <circle cx="720" cy="146" r="112" fill="#F5A45E" fill-opacity="0.18"/>
  <circle cx="754" cy="726" r="140" fill="#6FC6BC" fill-opacity="0.17"/>
  <path d="M122 664C219 566 325 517 441 517C563 517 673 567 772 667V770H122V664Z" fill="#D27A2C"/>
  <path d="M154 694C239 617 337 579 447 579C562 579 660 618 742 694V770H154V694Z" fill="#0F766E"/>
  <rect x="262" y="296" width="374" height="294" rx="24" fill="#FFF7EE"/>
  <rect x="304" y="182" width="290" height="124" rx="24" fill="#7C2D12"/>
  <path d="M332 306V250C332 213.549 361.549 184 398 184H500C536.451 184 566 213.549 566 250V306" stroke="#F4D2A6" stroke-width="16"/>
  <rect x="306" y="342" width="286" height="24" rx="12" fill="#E4C39A"/>
  <rect x="306" y="388" width="190" height="18" rx="9" fill="#D89A59"/>
  <rect x="306" y="430" width="238" height="18" rx="9" fill="#D89A59"/>
  <rect x="306" y="476" width="156" height="18" rx="9" fill="#D89A59"/>
  <circle cx="670" cy="352" r="64" fill="#FFF7EE"/>
  <path d="M670 320V354L692 374" stroke="#C46A21" stroke-width="14" stroke-linecap="round" stroke-linejoin="round"/>
  <circle cx="670" cy="352" r="12" fill="#0F766E"/>
  <path d="M172 280L214 240L256 280" stroke="#FFF2DF" stroke-width="18" stroke-linecap="round" stroke-linejoin="round"/>
  <path d="M640 150L672 118L704 150" stroke="#FFE5C6" stroke-width="16" stroke-linecap="round" stroke-linejoin="round"/>
  <defs>
    <linearGradient id="bg" x1="82" y1="71" x2="768" y2="834" gradientUnits="userSpaceOnUse">
      <stop stop-color="#8A3412"/>
      <stop offset="0.5" stop-color="#C56B1A"/>
      <stop offset="1" stop-color="#0F766E"/>
    </linearGradient>
  </defs>
</svg>
