<svg width="900" height="620" viewBox="0 0 900 620" fill="none" xmlns="http://www.w3.org/2000/svg">
  <rect width="900" height="620" rx="40" fill="url(#bg)"/>
  <rect x="86" y="88" width="728" height="444" rx="32" fill="#FDFEFF" fill-opacity="0.96"/>
  <rect x="128" y="130" width="250" height="150" rx="28" fill="#FFF2E5"/>
  <rect x="408" y="130" width="364" height="150" rx="28" fill="#EAF6FF"/>
  <rect x="128" y="304" width="644" height="188" rx="28" fill="#EDF8F1"/>
  <rect x="160" y="164" width="96" height="12" rx="6" fill="#C86A21"/>
  <rect x="160" y="190" width="132" height="10" rx="5" fill="#D39A68"/>
  <path d="M168 242H336" stroke="#F4C89B" stroke-width="18" stroke-linecap="round"/>
  <circle cx="226" cy="242" r="18" fill="#F47C20"/>
  <rect x="440" y="164" width="100" height="12" rx="6" fill="#0B66C3"/>
  <rect x="440" y="190" width="152" height="10" rx="5" fill="#90A9C2"/>
  <rect x="440" y="222" width="280" height="26" rx="13" fill="#FFFFFF"/>
  <rect x="160" y="340" width="120" height="12" rx="6" fill="#0F766E"/>
  <rect x="160" y="368" width="168" height="10" rx="5" fill="#74B5A2"/>
  <rect x="160" y="410" width="308" height="24" rx="12" fill="#FFFFFF"/>
  <rect x="160" y="450" width="260" height="24" rx="12" fill="#FFFFFF"/>
  <circle cx="658" cy="400" r="72" fill="#FFFFFF"/>
  <path d="M658 364V400L684 424" stroke="#0B66C3" stroke-width="16" stroke-linecap="round" stroke-linejoin="round"/>
  <circle cx="658" cy="400" r="10" fill="#0B66C3"/>
  <defs>
    <linearGradient id="bg" x1="73" y1="43" x2="800" y2="582" gradientUnits="userSpaceOnUse">
      <stop stop-color="#FFF5E8"/>
      <stop offset="1" stop-color="#EEF8FF"/>
    </linearGradient>
  </defs>
</svg>
