<svg width="900" height="620" viewBox="0 0 900 620" fill="none" xmlns="http://www.w3.org/2000/svg">
  <rect width="900" height="620" rx="40" fill="url(#bg)"/>
  <rect x="84" y="86" width="732" height="448" rx="32" fill="#FCFEFF" fill-opacity="0.96"/>
  <rect x="124" y="128" width="228" height="160" rx="28" fill="#EAF6FF"/>
  <rect x="384" y="128" width="392" height="120" rx="28" fill="#FFF2E4"/>
  <rect x="384" y="274" width="392" height="220" rx="28" fill="#EDF8F1"/>
  <circle cx="178" cy="192" r="32" fill="#F9C47C"/>
  <circle cx="242" cy="192" r="32" fill="#8FD3FF"/>
  <circle cx="210" cy="238" r="32" fill="#79CFA8"/>
  <rect x="416" y="160" width="106" height="12" rx="6" fill="#C86A21"/>
  <rect x="416" y="186" width="194" height="10" rx="5" fill="#D39A68"/>
  <rect x="416" y="310" width="116" height="12" rx="6" fill="#0F766E"/>
  <rect x="416" y="338" width="156" height="10" rx="5" fill="#74B5A2"/>
  <rect x="416" y="380" width="316" height="24" rx="12" fill="#FFFFFF"/>
  <rect x="416" y="420" width="278" height="24" rx="12" fill="#FFFFFF"/>
  <path d="M150 270C165 240 185 225 210 225C235 225 255 240 270 270" stroke="#0B66C3" stroke-width="14" stroke-linecap="round"/>
  <defs>
    <linearGradient id="bg" x1="74" y1="41" x2="801" y2="578" gradientUnits="userSpaceOnUse">
      <stop stop-color="#EEF8FF"/>
      <stop offset="1" stop-color="#F7FFF7"/>
    </linearGradient>
  </defs>
</svg>
